<svg xmlns="http://www.w3.org/2000/svg" viewBox="0 0 760 520" role="img" aria-labelledby="title desc">
  <title id="title">Perrito en Mi Refugio SC</title>
  <desc id="desc">Ilustracion calida de un perrito frente a una casita de refugio con corazones y huellas.</desc>
  <defs>
    <linearGradient id="bg" x1="0" y1="0" x2="1" y2="1">
      <stop offset="0" stop-color="#fffaf6"/>
      <stop offset="1" stop-color="#ffe8e5"/>
    </linearGradient>
    <linearGradient id="red" x1="0" y1="0" x2="1" y2="1">
      <stop offset="0" stop-color="#ef4444"/>
      <stop offset="1" stop-color="#b3121a"/>
    </linearGradient>
    <filter id="shadow" x="-20%" y="-20%" width="140%" height="140%">
      <feDropShadow dx="0" dy="20" stdDeviation="20" flood-color="#401f18" flood-opacity=".18"/>
    </filter>
  </defs>
  <rect width="760" height="520" rx="28" fill="url(#bg)"/>
  <path d="M58 410c92-42 176-55 252-39 60 13 98 47 159 42 70-6 105-55 178-49 27 2 47 10 62 17v82H58z" fill="#181311" opacity=".1"/>
  <g opacity=".25" fill="#d71920">
    <path d="M626 78c18-23 58-5 45 28-8 20-43 41-45 42-2-2-37-22-45-42-13-33 27-51 45-28z"/>
    <path d="M92 134c11-15 36-3 28 17-5 12-26 25-28 26-1-1-22-14-27-26-8-20 17-32 27-17z"/>
  </g>
  <g filter="url(#shadow)">
    <path d="M227 240l151-130 152 130v178H227z" fill="#fff"/>
    <path d="M196 242l182-157 184 157" fill="none" stroke="url(#red)" stroke-width="28" stroke-linecap="round" stroke-linejoin="round"/>
    <path d="M503 138h45v76" fill="none" stroke="#181311" stroke-width="18" stroke-linecap="round"/>
    <path d="M296 418V282c0-49 37-88 82-88s82 39 82 88v136z" fill="#181311"/>
  </g>
  <g transform="translate(285 225)" filter="url(#shadow)">
    <ellipse cx="96" cy="114" rx="103" ry="88" fill="#f4c7a1"/>
    <ellipse cx="46" cy="74" rx="36" ry="58" fill="#7b4a32" transform="rotate(-24 46 74)"/>
    <ellipse cx="146" cy="74" rx="36" ry="58" fill="#7b4a32" transform="rotate(24 146 74)"/>
    <circle cx="68" cy="103" r="10" fill="#181311"/>
    <circle cx="124" cy="103" r="10" fill="#181311"/>
    <path d="M92 118c4-7 15-7 19 0 4 8-4 16-9 16s-14-8-10-16z" fill="#181311"/>
    <path d="M76 147c14 17 39 17 53 0" fill="none" stroke="#181311" stroke-width="8" stroke-linecap="round"/>
    <path d="M107 134v14" stroke="#181311" stroke-width="6" stroke-linecap="round"/>
    <circle cx="50" cy="132" r="10" fill="#f7d4ba" opacity=".75"/>
    <circle cx="142" cy="132" r="10" fill="#f7d4ba" opacity=".75"/>
  </g>
  <g fill="#181311" opacity=".18">
    <g transform="translate(128 330) rotate(-16)">
      <ellipse cx="0" cy="18" rx="13" ry="18"/>
      <circle cx="-22" cy="-5" r="9"/>
      <circle cx="-7" cy="-16" r="9"/>
      <circle cx="10" cy="-16" r="9"/>
      <circle cx="25" cy="-5" r="9"/>
    </g>
    <g transform="translate(608 304) rotate(17) scale(.75)">
      <ellipse cx="0" cy="18" rx="13" ry="18"/>
      <circle cx="-22" cy="-5" r="9"/>
      <circle cx="-7" cy="-16" r="9"/>
      <circle cx="10" cy="-16" r="9"/>
      <circle cx="25" cy="-5" r="9"/>
    </g>
  </g>
</svg>
